<mxfile host="app.diagrams.net" modified="2024-02-09T11:02:42.129Z" agent="Mozilla/5.0 (Windows NT 10.0; Win64; x64) AppleWebKit/537.36 (KHTML, like Gecko) Chrome/120.0.0.0 Safari/537.36 OPR/106.0.0.0" version="23.1.0" etag="nn-fFt6vkBLqGAZoOh4U" type="github">
  <diagram name="PÃ¡gina-1" id="_-sY3GWzIw6dWkgKt2-A">
    <mxGraphModel>
      <root>
        <mxCell id="0" />
        <mxCell id="1" parent="0" />
      </root>
    </mxGraphModel>
  </diagram>
</mxfile>
